<?xml version="1.0" standalone="no"?>
<!DOCTYPE svg PUBLIC "-//W3C//DTD SVG 20010904//EN"
 "http://www.w3.org/TR/2001/REC-SVG-20010904/DTD/svg10.dtd">
<svg version="1.0" xmlns="http://www.w3.org/2000/svg"
 width="1024.000000pt" height="1024.000000pt" viewBox="0 0 1024.000000 1024.000000"
 preserveAspectRatio="xMidYMid meet">
<metadata>
Created by potrace 1.14, written by Peter Selinger 2001-2017
</metadata>
<g transform="translate(0.000000,1024.000000) scale(0.100000,-0.100000)"
fill="#000000" stroke="none">
<path d="M0 5120 l0 -5120 5120 0 5120 0 0 5120 0 5120 -5120 0 -5120 0 0
-5120z m7048 2710 c-3 -16 -1 -30 4 -30 17 0 7 -21 -24 -53 -18 -18 -26 -24
-18 -12 10 14 7 13 -11 -5 -14 -14 -33 -26 -44 -28 -15 -3 -14 1 9 28 28 33
27 53 -2 43 -26 -10 -7 7 30 25 18 10 37 27 43 40 13 30 18 28 13 -8z m-752
-42 c4 -13 8 -34 8 -48 1 -14 6 -24 14 -22 25 5 10 -14 -34 -43 -38 -25 -122
-130 -112 -140 2 -2 34 -24 73 -50 86 -59 126 -77 146 -64 8 5 9 9 3 9 -23 0
-26 34 -5 52 12 9 21 21 21 27 0 6 5 11 10 11 6 0 10 -5 10 -11 0 -8 4 -8 13
-1 6 5 22 13 35 16 21 7 21 6 11 -18 -7 -14 -15 -24 -18 -21 -4 2 -13 -1 -21
-6 -13 -7 -13 -10 -1 -18 9 -6 11 -18 6 -41 -8 -36 4 -50 42 -50 45 0 82 -79
134 -279 24 -93 35 -118 60 -142 17 -16 28 -32 25 -37 -3 -5 -2 -32 3 -60 6
-41 5 -52 -5 -52 -22 0 -16 -48 12 -115 14 -33 27 -82 30 -110 4 -56 31 -115
53 -115 10 0 12 8 7 30 -3 19 -2 29 4 25 6 -3 10 -18 10 -33 0 -21 9 -33 40
-52 49 -30 51 -44 5 -36 -27 5 -39 2 -55 -14 l-20 -20 0 24 c0 19 -8 27 -37
37 -56 20 -74 20 -64 1 6 -11 2 -28 -10 -51 -22 -41 -24 -61 -6 -62 8 0 8 -2
1 -5 -20 -8 -3 -44 27 -60 16 -8 29 -17 29 -20 0 -2 -14 3 -31 12 -37 19 -46
13 -74 -56 -20 -48 -45 -83 -45 -62 0 7 -9 21 -20 32 -11 11 -20 16 -20 10 0
-5 -7 -10 -15 -10 -8 0 -15 8 -15 19 0 10 -8 29 -19 42 -30 39 -24 74 18 106
58 44 62 53 36 85 -13 15 -25 33 -27 39 -7 20 -38 2 -38 -22 0 -12 -5 -19 -12
-17 -7 3 -23 -8 -35 -23 -13 -14 -32 -29 -44 -32 -20 -5 -21 -3 -15 31 3 20 6
44 6 53 0 10 22 31 49 49 l50 31 -15 47 c-7 26 -14 49 -14 52 0 3 -5 -2 -10
-10 -8 -12 -10 -9 -10 11 0 35 -34 63 -76 65 -19 0 -34 -2 -34 -5 0 -4 -9 -7
-21 -8 -17 -2 -20 3 -16 23 2 13 0 24 -4 24 -5 0 -9 -11 -9 -24 0 -29 -16 -41
-53 -41 -27 0 -29 3 -33 48 -4 55 -11 70 -26 61 -7 -5 -8 -2 -4 5 5 7 1 20 -8
30 -26 29 -29 65 -7 85 11 10 25 15 31 11 9 -6 10 1 5 24 -6 30 -6 31 29 31
19 0 37 4 40 8 6 10 -93 118 -106 114 -5 -1 -7 2 -3 8 4 6 -14 19 -42 30 -76
32 -172 82 -225 118 -56 38 -166 83 -263 107 -55 14 -87 16 -150 10 -44 -5
-117 -7 -163 -6 -63 2 -83 -1 -87 -11 -4 -10 -16 -13 -36 -10 -23 3 -28 1 -23
-11 4 -11 -3 -17 -25 -22 -17 -4 -31 -12 -31 -18 0 -8 -4 -7 -9 2 -7 11 -16
11 -54 -2 -67 -22 -157 -83 -157 -105 0 -11 -9 -27 -20 -37 -11 -10 -22 -26
-25 -36 -4 -11 -12 -19 -19 -19 -7 0 -19 -11 -26 -25 -7 -13 -18 -22 -23 -18
-6 3 -7 1 -3 -6 4 -6 0 -23 -9 -38 -10 -14 -15 -36 -12 -51 l5 -26 -17 23
c-16 21 -18 21 -33 4 -35 -40 -60 -111 -79 -220 -23 -138 -23 -128 -2 -112 10
8 6 -3 -10 -23 -31 -42 -33 -59 -11 -119 9 -24 19 -86 24 -138 9 -99 19 -124
112 -285 l41 -69 17 23 c12 17 18 19 22 9 3 -8 2 -23 -3 -34 -16 -42 -9 -65
34 -107 79 -77 176 -146 152 -109 -3 5 -1 12 5 16 6 4 10 -6 10 -23 0 -45 18
-54 67 -32 23 10 44 16 47 12 14 -13 4 -43 -16 -51 -19 -7 -17 -9 17 -14 28
-5 47 -2 65 10 25 16 25 16 7 -4 -17 -20 -17 -21 15 -41 18 -11 51 -32 73 -48
96 -66 102 -69 84 -48 -9 10 -15 29 -14 42 1 13 -3 26 -8 29 -6 3 -7 1 -3 -5
5 -8 2 -10 -9 -6 -14 6 -14 8 2 19 29 21 68 -8 68 -50 0 -13 7 -20 22 -21 12
-1 27 -4 35 -6 11 -5 13 5 12 43 -2 38 0 47 12 42 8 -3 14 -1 14 5 0 14 -50
22 -51 8 0 -7 -3 -6 -6 2 -2 6 -14 12 -25 12 -11 0 -22 8 -25 20 -3 11 -9 20
-13 20 -4 0 -10 10 -14 23 -3 12 -24 32 -48 46 l-43 24 24 -27 c14 -14 20 -26
14 -26 -6 0 -16 7 -23 15 -14 17 -35 21 -25 5 3 -5 1 -10 -4 -10 -6 0 -11 5
-11 10 0 6 -7 13 -15 16 -8 4 -32 22 -53 41 -20 19 -55 50 -76 70 -23 21 -35
38 -28 41 16 5 139 -62 177 -97 45 -42 94 -67 155 -81 109 -26 146 -54 226
-174 28 -42 35 -61 30 -81 -6 -25 -7 -25 -26 -7 -12 11 -18 26 -15 34 4 10
-10 33 -38 63 l-44 48 -22 -22 c-28 -28 -27 -31 10 -31 41 0 61 -25 46 -57
-12 -26 -57 -33 -57 -8 0 8 9 15 20 15 11 0 20 7 20 15 0 11 -8 13 -32 8 -44
-8 -44 -8 -29 -48 7 -19 9 -41 5 -47 -5 -10 -4 -10 6 -1 11 10 16 9 26 -5 13
-16 13 -16 14 1 0 9 8 17 18 17 13 0 14 -2 3 -9 -9 -6 -10 -11 -2 -15 6 -4 9
-11 6 -16 -10 -17 76 -25 175 -17 32 3 62 44 50 68 -11 20 13 48 25 29 10 -16
-43 -118 -65 -125 -30 -9 -32 -33 -4 -52 102 -71 152 -115 174 -154 19 -33 41
-52 85 -76 91 -48 96 -47 102 13 4 49 3 52 -27 64 -16 7 -30 15 -30 19 0 3
-11 19 -25 34 -14 15 -24 27 -23 27 2 0 35 -17 74 -37 42 -23 69 -43 67 -50
-3 -7 0 -13 5 -13 15 0 -6 -83 -24 -97 -14 -10 3 -30 113 -136 114 -111 129
-123 135 -104 6 22 9 19 13 -18 2 -21 68 -129 84 -139 5 -3 12 6 15 19 4 14
11 23 16 20 11 -7 40 45 40 72 1 17 1 17 11 -1 7 -11 8 -21 2 -25 -13 -8 -44
-101 -38 -111 3 -5 1 -10 -5 -12 -6 -2 1 -20 15 -40 14 -20 49 -90 79 -155 30
-65 60 -117 65 -116 6 2 11 0 12 -5 4 -44 11 -68 26 -90 14 -23 18 -24 21 -9
4 19 22 24 22 5 0 -6 3 -8 6 -5 4 4 22 -7 41 -23 18 -17 38 -30 43 -30 6 0 10
-4 10 -10 0 -5 -6 -10 -14 -10 -7 0 -19 -6 -25 -14 -9 -11 -8 -17 4 -29 16
-17 21 -32 6 -23 -12 8 -23 -41 -15 -67 10 -32 34 -57 58 -58 15 0 11 -4 -14
-13 -44 -16 -49 -44 -15 -76 15 -14 25 -34 25 -52 0 -16 7 -40 16 -53 15 -23
15 -24 -11 -31 -38 -9 -75 10 -75 40 0 29 -11 39 -34 30 -13 -5 -16 -19 -15
-58 1 -28 -5 -85 -14 -126 -47 -230 -52 -286 -32 -352 l8 -23 -19 20 c-11 12
-18 19 -17 17 1 -2 -7 -14 -18 -25 -22 -24 -17 -32 30 -42 23 -5 31 -4 27 4
-4 6 -3 11 2 11 6 0 13 -7 16 -16 6 -15 8 -15 27 2 11 10 20 14 19 9 -5 -23 2
-33 31 -45 26 -11 32 -11 40 1 7 11 9 11 9 -3 0 -9 9 -32 20 -51 l21 -35 -26
-4 c-14 -3 -25 -2 -25 3 0 13 -30 39 -46 39 -8 0 -23 -9 -34 -20 -20 -20 -20
-20 -20 5 0 21 -10 30 -54 50 -30 14 -58 25 -63 25 -15 -1 -64 -80 -57 -92 4
-7 3 -8 -4 -4 -14 8 -44 -47 -36 -68 3 -8 -3 -19 -15 -26 -12 -6 -21 -17 -21
-25 0 -16 51 -34 95 -33 69 1 80 -1 67 -14 -16 -16 -15 -49 3 -72 8 -11 15
-29 15 -40 -1 -20 -2 -19 -14 3 -13 23 -13 23 -19 2 -7 -28 -31 -19 -77 30
-19 20 -50 44 -69 54 l-35 17 -35 -39 c-20 -22 -61 -57 -91 -79 -30 -21 -74
-55 -97 -76 -23 -20 -58 -44 -77 -52 -41 -17 -47 -43 -21 -92 8 -16 15 -37 15
-46 0 -12 5 -15 17 -11 11 4 14 3 9 -5 -5 -9 0 -9 19 -2 17 6 33 7 43 1 14 -8
11 -12 -18 -24 -58 -24 -65 -24 -77 -8 -10 14 -15 14 -42 -7 -17 -12 -31 -18
-31 -12 0 6 -4 9 -9 5 -5 -3 -13 -31 -18 -63 l-8 -57 -5 60 c-3 33 -8 53 -12
45 -15 -41 -48 -192 -48 -224 0 -20 -5 -36 -11 -36 -12 0 -8 44 14 152 8 44 8
61 -1 70 -8 8 -15 8 -27 -2 -8 -7 -15 -8 -15 -2 0 5 7 13 16 16 13 5 11 11
-11 40 -36 48 -70 68 -100 60 -14 -3 -25 -12 -25 -20 0 -7 -6 -11 -14 -8 -19
7 -46 -39 -49 -83 -2 -35 1 -38 33 -50 l35 -12 -31 0 c-16 -1 -35 4 -41 10
-19 19 -42 2 -63 -46 -21 -49 -38 -56 -58 -25 -7 11 -17 20 -23 20 -6 0 -18 7
-26 16 -14 13 -14 17 -3 24 8 5 18 6 22 4 4 -3 8 -1 8 5 0 5 9 13 20 16 36 12
80 56 80 81 0 28 0 29 -48 8 -20 -9 -57 -16 -82 -16 -41 0 -42 0 -15 -8 32 -8
28 -11 -23 -16 -17 -1 -30 2 -26 7 7 12 6 12 -61 -11 -66 -23 -272 -31 -387
-16 -66 9 -67 9 -73 -17 -4 -16 -15 -27 -30 -30 -20 -3 -25 1 -30 23 -6 25
-11 28 -68 34 -34 4 -81 14 -105 22 -23 8 -64 14 -91 14 -27 0 -73 5 -102 11
-30 6 -61 11 -69 12 -8 1 -21 8 -29 15 -8 8 -22 11 -33 9 -10 -3 -16 -1 -13 3
6 10 -14 16 -81 25 l-51 6 5 -55 c4 -49 2 -56 -13 -56 -10 0 -15 3 -12 7 4 3
3 11 -2 17 -5 6 -14 31 -21 55 -11 44 -12 44 -31 24 -11 -11 -23 -42 -28 -72
l-8 -52 36 -19 c20 -10 53 -21 73 -25 21 -4 45 -14 55 -22 19 -15 25 -15 -129
4 -41 5 -48 3 -48 -11 0 -16 -1 -16 -16 -2 -22 22 -57 29 -115 24 -27 -3 -49
-1 -49 3 0 5 17 20 38 33 53 34 76 64 90 118 12 48 7 83 -9 72 -13 -8 -11 10
4 25 10 11 8 11 -13 2 -24 -11 -24 -11 -6 3 11 9 24 16 29 16 6 0 3 8 -6 18
-10 10 -14 21 -11 24 3 3 -10 11 -30 18 -19 6 -37 16 -40 23 -2 7 -5 8 -5 2
-1 -16 55 -75 65 -67 4 4 1 -5 -8 -19 -11 -18 -15 -39 -11 -66 6 -48 -7 -57
-61 -42 -25 7 -37 17 -40 32 -3 12 -7 34 -10 49 -3 14 -3 34 0 43 5 13 9 14
23 3 21 -17 59 -38 68 -38 4 0 -1 6 -10 13 -9 6 -30 39 -47 72 -16 33 -30 54
-30 48 0 -28 -19 -11 -22 20 -3 27 -10 35 -54 57 -29 14 -49 30 -47 38 7 18
53 15 76 -6 19 -16 20 -16 8 6 -6 12 -15 22 -19 22 -4 0 -12 11 -19 25 -6 14
-7 23 -2 19 16 -9 10 20 -11 54 -24 39 -29 40 -22 6 5 -26 5 -26 -22 -9 -14
10 -26 20 -26 24 0 4 -13 15 -30 24 l-29 18 -9 -33 c-10 -41 -32 -42 -51 -3
-8 17 -17 32 -22 35 -18 13 -13 90 6 90 31 0 13 43 -23 54 -37 12 -55 69 -58
181 -2 108 2 139 17 129 6 -3 17 0 25 7 8 6 17 9 21 6 9 -9 34 13 27 24 -7 12
16 11 55 -2 42 -15 39 -26 -5 -21 -34 4 -36 3 -29 -19 9 -29 26 -41 40 -29 13
10 40 -17 48 -47 3 -10 5 -4 6 15 1 23 -3 32 -15 32 -17 0 -11 35 11 57 13 13
11 86 -5 135 -16 50 28 146 74 163 33 11 56 -1 75 -41 7 -16 30 -47 51 -69 21
-22 41 -51 45 -65 15 -49 72 -159 80 -152 5 4 6 2 2 -3 -3 -6 3 -44 14 -85 22
-81 85 -170 120 -170 32 0 117 -37 151 -65 18 -15 44 -44 57 -64 13 -20 35
-52 50 -71 30 -41 34 -58 17 -76 -15 -15 -59 -7 -49 9 3 5 -1 15 -10 21 -8 7
-17 25 -19 41 -3 32 -45 62 -62 45 -13 -13 -29 -13 -21 -1 3 5 1 12 -4 16 -16
9 -3 -37 17 -65 10 -14 45 -43 78 -65 33 -22 79 -56 103 -76 42 -36 128 -68
140 -52 8 11 61 13 61 3 0 -5 -6 -10 -12 -13 -7 -2 7 -10 32 -17 25 -7 62 -21
82 -31 48 -25 73 -24 75 1 1 14 -4 20 -18 20 -11 0 -18 4 -14 9 3 6 -5 20 -17
32 l-23 22 25 -8 c47 -13 65 -11 65 9 0 10 -7 22 -15 26 -8 4 -29 15 -47 24
-40 21 -50 20 -56 -4 -5 -21 -50 -29 -62 -10 -8 13 47 40 82 40 15 0 39 9 53
20 32 25 40 25 40 0 0 -11 6 -20 13 -20 19 0 35 -44 31 -87 -2 -21 -2 -52 1
-68 5 -30 7 -31 88 -43 249 -36 497 -19 514 35 3 7 -10 21 -27 32 -19 11 -27
22 -21 26 13 7 51 -3 51 -14 0 -12 29 -9 34 4 2 7 -12 17 -35 24 -21 7 -39 15
-39 20 0 14 47 33 76 30 16 -2 42 4 58 12 26 14 31 14 64 -2 22 -12 45 -16 61
-12 21 5 140 82 188 123 7 6 16 9 20 8 4 -2 15 11 26 29 22 38 78 193 69 193
-3 0 3 10 14 22 29 33 44 73 44 116 0 45 -17 67 -37 51 -10 -9 -13 -8 -13 4 0
8 -5 17 -11 19 -6 2 2 10 18 18 15 8 31 19 35 25 12 16 9 53 -4 57 -16 6 -17
116 -1 137 19 24 16 55 -11 114 -22 51 -51 86 -45 56 4 -22 -11 -60 -22 -54
-5 4 -9 2 -9 -4 0 -10 -58 -26 -67 -18 -3 3 11 16 31 29 19 13 38 33 41 46 3
12 12 22 20 22 13 0 14 4 1 35 -8 19 -18 56 -21 82 -12 85 -49 176 -64 156
-16 -21 -31 -11 -31 20 0 39 -8 51 -26 36 -9 -8 -11 -6 -7 9 3 14 -8 28 -44
55 -26 20 -79 68 -118 107 -59 60 -87 80 -182 125 -88 43 -119 64 -150 100
-42 51 -97 90 -113 80 -5 -3 -10 -1 -10 5 0 18 -63 51 -88 45 -15 -4 -21 -2
-17 4 3 6 -19 23 -49 38 l-56 27 -29 -22 c-39 -28 -43 -28 -31 4 34 88 -19
141 -295 302 -38 23 -108 78 -153 123 -72 70 -88 80 -112 77 -16 -2 -27 -1
-24 3 2 4 1 9 -3 12 -5 2 -2 2 5 1 20 -5 -1 25 -47 70 -22 22 -50 41 -62 43
-38 6 -54 21 -83 77 -30 57 -80 114 -76 86 1 -8 2 -22 1 -30 -2 -16 -31 72
-34 102 -1 9 -6 14 -11 11 -5 -4 -7 1 -3 11 7 17 -20 82 -30 73 -2 -3 3 -18
13 -34 l18 -28 -27 28 c-15 15 -27 32 -27 37 0 5 -5 21 -10 36 l-11 27 -15
-21 c-22 -32 -40 -18 -36 27 2 21 -1 42 -7 45 -16 10 -26 -24 -13 -44 9 -15 7
-19 -14 -24 -14 -4 -24 -14 -24 -24 0 -15 2 -15 11 -2 7 10 9 11 7 2 -5 -20
-22 -16 -28 8 -3 11 -20 29 -37 40 -20 12 -31 25 -27 34 3 8 1 17 -5 21 -18
11 -12 61 11 90 l22 28 -23 18 c-13 11 -21 25 -18 34 4 8 2 17 -3 20 -12 8 20
54 38 55 18 0 14 34 -8 63 -29 36 -25 42 11 16 25 -17 37 -20 58 -13 25 9 26
14 32 94 4 47 3 86 -2 88 -5 2 -9 8 -9 14 0 6 -10 30 -22 54 -19 40 -20 47 -8
84 11 33 11 47 0 79 -11 33 -19 41 -49 48 -29 7 -36 14 -42 41 -4 18 -2 35 3
38 5 4 8 14 5 24 -4 16 -1 17 20 9 37 -14 73 -11 73 6 0 8 4 15 9 15 5 0 12
14 16 30 4 17 11 30 16 30 5 0 12 0 16 1 3 0 13 -22 22 -48 9 -28 22 -48 31
-48 15 0 73 142 64 157 -3 4 1 8 8 8 7 1 28 34 47 75 19 41 42 82 52 91 23 21
24 28 3 48 -20 21 -10 36 26 36 23 0 34 9 59 48 33 52 164 176 202 191 49 19
65 24 94 25 40 1 45 30 8 44 -55 21 -59 28 -32 51 13 11 30 20 38 21 15 0 56
-40 63 -62 3 -9 16 -6 51 12 25 13 44 27 42 31 -3 3 6 4 18 2 12 -3 46 5 75
16 29 12 62 21 74 21 38 0 98 23 98 37 0 10 6 12 20 8 30 -10 67 19 76 57 4
19 9 27 12 18 2 -8 14 -25 25 -37 l20 -23 -24 -9 c-18 -7 -19 -10 -6 -10 10
-1 44 10 77 24 39 16 78 25 115 25 47 0 55 3 55 19 0 22 17 37 45 43 11 2 21
13 23 25 2 12 9 27 17 33 11 9 17 5 29 -19 12 -22 13 -31 3 -34 -7 -3 -4 -6 6
-6 10 -1 15 -5 12 -11 -3 -5 0 -10 8 -10 8 0 17 -8 20 -19 3 -15 18 -19 76
-25 39 -3 102 -9 141 -12 41 -4 87 -2 114 5 37 9 54 8 92 -5 l47 -16 69 69
c38 37 71 79 74 93 9 40 23 70 33 70 5 0 13 -10 17 -22z m-889 -78 c11 0 16
-26 12 -56 0 -4 5 -10 12 -15 25 -15 1 -20 -28 -6 -40 21 -83 73 -82 99 1 20
3 19 15 -9 20 -47 37 -51 18 -4 -9 23 -13 49 -9 58 6 15 11 10 28 -24 12 -24
27 -43 34 -43z m1334 11 c-20 -39 -31 -75 -31 -103 0 -27 -7 -49 -19 -62 -23
-26 -44 -98 -45 -154 0 -24 -2 -39 -4 -32 -3 7 -9 5 -16 -6 -12 -15 -13 -15
-12 7 1 18 -4 23 -16 21 -10 -2 -18 3 -18 10 0 9 -3 9 -11 -2 -8 -11 -9 -4 -4
25 4 22 8 46 9 53 1 7 10 22 19 33 9 10 17 28 17 38 0 11 11 33 25 49 14 17
25 35 25 41 0 7 7 14 15 17 8 4 15 11 15 17 0 15 71 119 77 113 2 -2 -9 -31
-26 -65z m-104 -17 c6 -36 5 -38 -10 -25 -10 8 -17 28 -17 49 0 47 18 30 27
-24z m-467 9 c-1 -18 -17 -32 -45 -39 l-30 -7 24 27 c23 25 51 35 51 19z
m-387 -53 c5 -41 4 -46 -13 -46 -11 0 -20 4 -20 9 0 12 23 88 25 85 1 -2 5
-23 8 -48z m-463 18 c0 -7 -7 -22 -15 -32 -13 -18 -14 -17 -12 12 2 30 27 48
27 20z m404 -3 c25 -19 9 -19 -24 0 -14 8 -19 14 -10 14 8 0 24 -6 34 -14z
m862 -73 c-16 -30 -53 -68 -61 -60 -4 4 63 85 73 87 1 1 -4 -11 -12 -27z
m-1981 -212 c3 -5 1 -10 -4 -10 -6 0 -11 5 -11 10 0 6 2 10 4 10 3 0 8 -4 11
-10z m2072 -22 c-3 -7 -5 -2 -5 12 0 14 2 19 5 13 2 -7 2 -19 0 -25z m-2279
-23 c-8 -8 -78 -17 -78 -10 0 12 65 33 74 24 5 -5 7 -11 4 -14z m-112 -33 c-3
-5 -24 -9 -48 -10 -32 0 -38 2 -23 8 26 11 78 12 71 2z m154 -16 c0 -8 -7 -16
-15 -20 -13 -4 -14 -2 -5 14 13 23 20 26 20 6z m936 -33 c-10 -10 -19 5 -10
18 6 11 8 11 12 0 2 -7 1 -15 -2 -18z m-196 -37 c0 -14 5 -28 10 -31 19 -12
10 -25 -16 -25 -22 0 -25 3 -20 23 3 12 6 30 6 40 0 9 5 17 10 17 6 0 10 -11
10 -24z m850 -223 c-11 -17 -11 -17 -6 0 3 10 6 24 7 30 0 9 2 9 5 0 3 -7 0
-20 -6 -30z m660 -5 c0 -6 -6 -5 -15 2 -8 7 -15 14 -15 16 0 2 7 1 15 -2 8 -4
15 -11 15 -16z m-595 -68 c-4 -12 -9 -19 -12 -17 -3 3 -2 15 2 27 4 12 9 19
12 17 3 -3 2 -15 -2 -27z m665 -170 c0 -5 -5 -10 -11 -10 -5 0 -7 5 -4 10 3 6
8 10 11 10 2 0 4 -4 4 -10z m-2892 -234 c4 -21 -25 -69 -38 -61 -5 3 -7 11 -5
18 2 7 6 25 10 40 6 30 28 32 33 3z m66 -41 c-17 -54 -17 -57 -1 -67 10 -5 22
-19 28 -31 5 -12 13 -29 18 -37 40 -70 50 -100 28 -81 -8 6 -17 8 -20 4 -4 -3
-7 -2 -7 4 0 5 -25 27 -55 49 -46 33 -54 43 -51 65 4 29 67 161 74 155 2 -2
-4 -30 -14 -61z m2916 55 c0 -5 -5 -10 -11 -10 -5 0 -7 5 -4 10 3 6 8 10 11
10 2 0 4 -4 4 -10z m-137 -187 c-7 -2 -13 -12 -13 -20 0 -9 -3 -14 -6 -10 -10
10 4 37 18 36 10 0 10 -2 1 -6z m-2813 -148 c7 -8 8 -15 2 -15 -5 0 -15 7 -22
15 -7 8 -8 15 -2 15 5 0 15 -7 22 -15z m-37 -87 c3 -13 4 -34 2 -48 -2 -14 -4
-29 -4 -33 -1 -5 -5 -5 -11 -2 -12 8 -13 105 -1 105 5 0 11 -10 14 -22z m243
-459 c1 -35 -11 -27 -21 14 -6 21 -4 26 6 22 8 -3 14 -19 15 -36z m1264 -9
c13 -8 13 -10 -2 -10 -9 0 -20 5 -23 10 -8 13 5 13 25 0z m-913 -396 c-3 -3
-12 -4 -19 -1 -8 3 -5 6 6 6 11 1 17 -2 13 -5z m2052 -429 c0 -20 0 -20 -14
-1 -8 11 -15 29 -15 40 0 20 0 20 15 0 8 -10 14 -28 14 -39z m-2540 -162 c1
-7 -6 -13 -15 -13 -11 0 -14 5 -10 16 3 9 6 25 7 37 1 20 2 20 9 -3 4 -14 8
-31 9 -37z m2811 -182 c0 -20 -39 -74 -40 -55 0 20 22 74 31 74 5 0 9 -9 9
-19z m-2580 -172 c-7 -11 -14 -18 -17 -15 -8 8 5 36 17 36 7 0 7 -6 0 -21z
m2530 -13 c0 -3 -4 -8 -10 -11 -5 -3 -10 -1 -10 4 0 6 5 11 10 11 6 0 10 -2
10 -4z m-2545 -333 c-5 -10 -7 -47 -6 -82 2 -52 0 -63 -12 -58 -16 6 -26 -11
-53 -90 -10 -29 -20 -50 -23 -45 -4 4 -15 12 -25 18 -22 11 -28 61 -9 68 7 3
18 27 26 53 10 32 19 47 29 45 10 -1 18 8 21 25 4 16 17 40 29 55 27 32 33 35
23 11z m-145 -92 c0 -13 -31 -43 -38 -37 -3 3 3 15 13 26 20 22 25 24 25 11z
m2895 -37 l30 -14 -35 5 c-19 3 -39 10 -44 15 -15 15 14 12 49 -6z m62 -26
c-3 -8 -6 -5 -6 6 -1 11 2 17 5 13 3 -3 4 -12 1 -19z m-37 -78 c0 -5 -5 -10
-11 -10 -5 0 -7 5 -4 10 3 6 8 10 11 10 2 0 4 -4 4 -10z m-960 -15 c0 -8 -4
-15 -10 -15 -5 0 -10 7 -10 15 0 8 5 15 10 15 6 0 10 -7 10 -15z m84 -50 c-4
-8 -13 -15 -21 -15 -13 0 -13 3 -3 15 7 8 16 15 21 15 5 0 6 -7 3 -15z m-1699
-24 c4 -21 0 -41 -15 -68 l-21 -38 6 50 c3 28 6 58 6 68 0 28 17 20 24 -12z
m1705 -35 c10 -13 10 -17 3 -12 -7 4 -13 3 -13 -3 0 -5 5 -11 12 -13 8 -3 8
-9 0 -24 -11 -18 -11 -18 -12 3 0 12 -6 28 -14 36 -11 11 -12 17 -4 25 7 7 12
11 13 9 0 -1 7 -11 15 -21z m-1900 -43 c0 -5 -4 -15 -10 -23 -11 -18 -25 -7
-17 15 6 15 27 21 27 8z m145 -26 c2 -13 -5 -33 -14 -46 -17 -22 -17 -22 -13
16 6 68 21 84 27 30z m-181 -13 c3 -8 2 -12 -4 -9 -6 3 -10 10 -10 16 0 14 7
11 14 -7z m1966 -178 c0 -2 -7 -9 -15 -16 -13 -11 -14 -10 -9 4 5 14 24 23 24
12z m-46 -81 c-28 -22 -40 -18 -13 4 13 11 26 17 28 15 3 -2 -4 -11 -15 -19z
m-1216 -447 c-3 -7 -13 -15 -24 -17 -16 -3 -17 -1 -5 13 16 19 34 21 29 4z
m17 -66 c-3 -3 -11 0 -18 7 -9 10 -8 11 6 5 10 -3 15 -9 12 -12z m1041 -419
c-1 -39 -5 -57 -13 -56 -6 2 -17 -14 -24 -34 -6 -21 -21 -45 -33 -54 -29 -24
-34 -14 -8 14 24 26 64 128 64 165 0 12 4 22 8 22 4 0 7 -26 6 -57z m130 -63
c-8 -49 -69 -168 -74 -144 -2 9 1 19 6 23 16 10 62 113 62 139 0 12 3 22 6 22
4 0 4 -18 0 -40z m-256 -52 c0 -6 -7 -5 -15 2 -8 7 -15 17 -15 22 0 6 7 5 15
-2 8 -7 15 -17 15 -22z"/>
<path d="M5533 7613 c-22 -8 -14 -23 12 -23 14 0 25 4 25 9 0 11 -21 19 -37
14z"/>
<path d="M5511 7471 c-11 -7 -11 -13 0 -32 l12 -24 10 23 c12 26 -1 46 -22 33z"/>
<path d="M6088 7426 c11 -18 23 -48 27 -65 10 -45 31 -33 27 15 -4 40 -35 84
-60 84 -11 0 -10 -7 6 -34z"/>
<path d="M5916 7392 c-4 -7 -17 -17 -29 -21 -20 -8 -20 -8 6 -26 33 -21 39
-17 35 27 -2 22 -6 29 -12 20z"/>
<path d="M6017 7374 c-9 -9 4 -34 18 -34 8 0 11 8 8 20 -5 20 -15 25 -26 14z"/>
<path d="M6160 7346 c0 -19 5 -38 10 -41 6 -3 10 -15 10 -26 0 -10 7 -19 15
-19 9 0 18 -6 21 -14 7 -19 44 -14 80 11 16 11 42 28 57 37 33 20 31 38 -4 46
-16 4 -31 0 -43 -12 -29 -26 -48 -22 -79 17 -37 47 -67 47 -67 1z"/>
<path d="M6347 7216 c-4 -9 -2 -18 4 -21 14 -9 51 5 46 18 -6 18 -44 20 -50 3z"/>
<path d="M4493 7092 c-9 -6 -8 -16 7 -40 23 -38 65 -52 87 -29 18 18 11 47
-12 47 -9 0 -23 7 -31 15 -17 17 -33 19 -51 7z"/>
<path d="M4356 6858 c-23 -45 -21 -61 7 -53 34 11 40 20 32 54 -8 39 -19 39
-39 -1z"/>
<path d="M4430 6855 c0 -18 19 -40 26 -32 4 4 0 15 -9 24 -9 10 -17 13 -17 8z"/>
<path d="M4355 6791 c-19 -8 -19 -8 2 -19 28 -15 28 -15 30 8 2 22 -1 23 -32
11z"/>
<path d="M4379 6717 c6 -8 8 -17 4 -21 -4 -4 -1 -11 7 -16 11 -7 11 -11 1 -24
-10 -12 -17 -13 -26 -6 -9 7 -22 5 -44 -7 -26 -15 -31 -22 -26 -43 3 -14 7
-32 8 -40 1 -8 15 -25 32 -36 23 -17 33 -19 47 -10 10 6 16 16 14 22 -3 7 1
20 8 30 26 39 36 82 20 95 -7 6 -12 15 -9 19 2 4 -5 17 -16 28 -21 24 -39 31
-20 9z"/>
<path d="M4350 6690 c0 -5 5 -10 11 -10 5 0 7 5 4 10 -3 6 -8 10 -11 10 -2 0
-4 -4 -4 -10z"/>
<path d="M6696 6575 c-4 -22 -9 -48 -11 -58 -3 -19 29 -42 45 -32 6 3 10 1 10
-5 0 -6 4 -9 10 -5 5 3 0 15 -11 26 -11 11 -24 17 -29 14 -12 -7 -13 17 -2 31
5 5 6 23 2 39 l-7 30 -7 -40z"/>
<path d="M4055 6562 c-6 -4 -16 -19 -22 -33 -10 -23 -9 -30 11 -48 21 -20 24
-21 30 -5 4 10 1 21 -5 25 -7 4 -10 20 -7 38 2 17 4 31 4 31 -1 0 -6 -4 -11
-8z"/>
<path d="M4076 6551 c-4 -7 -5 -15 -2 -18 9 -9 19 4 14 18 -4 11 -6 11 -12 0z"/>
<path d="M4030 6461 c16 -31 32 -36 18 -7 -6 14 -15 26 -20 26 -5 0 -4 -9 2
-19z"/>
<path d="M4300 6432 c0 -25 30 -61 36 -44 3 6 9 10 14 7 4 -3 11 2 14 11 5 12
2 15 -9 10 -10 -4 -14 -2 -9 5 7 12 -12 29 -33 29 -7 0 -13 -8 -13 -18z"/>
<path d="M6654 6415 c-22 -33 -13 -41 23 -20 15 9 21 14 12 11 -13 -3 -15 0
-12 15 7 27 -3 24 -23 -6z"/>
<path d="M4181 6407 c-27 -27 3 -50 36 -29 9 6 8 12 -6 24 -14 12 -22 13 -30
5z"/>
<path d="M4194 6334 c-16 -13 -16 -15 -1 -10 11 3 17 0 17 -9 0 -20 46 -19 54
1 3 9 6 20 6 25 0 15 -55 10 -76 -7z"/>
<path d="M6607 6323 c-8 -15 -22 -52 -32 -82 -17 -52 -17 -55 1 -68 10 -7 21
-13 25 -13 8 0 37 103 41 149 4 44 -16 52 -35 14z"/>
<path d="M4310 6321 c0 -5 -2 -16 -6 -24 -3 -9 7 -20 30 -31 19 -9 43 -30 53
-46 16 -28 53 -42 53 -20 0 6 0 13 0 18 0 4 -6 7 -12 7 -17 0 -45 26 -50 44
-8 36 -68 81 -68 52z"/>
<path d="M6503 6293 c-15 -5 -17 -23 -4 -23 5 0 11 7 15 15 3 8 4 15 3 14 -1
0 -8 -3 -14 -6z"/>
<path d="M6536 6279 c-29 -23 -34 -54 -11 -63 11 -4 19 3 25 22 6 15 15 35 20
45 14 23 -1 22 -34 -4z"/>
<path d="M4287 6213 c-9 -16 20 -62 59 -96 18 -15 26 -16 48 -6 14 7 26 16 26
20 0 4 9 11 20 14 37 12 10 25 -37 18 -41 -5 -46 -4 -40 11 6 16 -4 25 -35 30
-7 1 -18 5 -25 9 -6 4 -14 4 -16 0z"/>
<path d="M4486 6135 c-3 -9 -10 -14 -14 -11 -5 3 -6 -8 -4 -25 5 -33 3 -32 36
-20 18 7 23 15 19 30 -8 30 -29 45 -37 26z"/>
<path d="M4341 5961 c-7 -5 -22 -6 -32 -4 -21 6 -26 -20 -10 -46 9 -15 31 -7
31 11 0 6 7 20 17 30 17 20 16 23 -6 9z"/>
<path d="M4336 5891 c-24 -25 -25 -29 -11 -41 13 -11 17 -7 31 25 19 48 14 52
-20 16z"/>
<path d="M4066 5844 c-3 -9 -6 -29 -6 -46 0 -23 4 -29 16 -24 9 3 17 6 18 6 1
0 1 15 -2 33 -4 31 -3 31 12 12 12 -16 15 -17 16 -4 0 33 -43 52 -54 23z"/>
<path d="M4665 5772 c-14 -10 -36 -75 -27 -81 12 -10 14 -61 3 -75 -9 -10 -7
-26 7 -62 22 -55 37 -65 48 -32 7 22 7 22 15 3 4 -11 8 -35 8 -52 1 -29 4 -33
26 -31 13 1 27 9 30 16 3 10 9 11 18 5 19 -15 38 -10 55 15 14 21 13 22 -9 24
-13 0 -30 1 -36 1 -7 -1 -10 4 -7 9 4 6 -2 8 -15 3 -15 -5 -21 -2 -21 9 0 9
-7 16 -15 16 -17 0 -27 34 -30 99 0 25 -4 53 -8 61 -3 8 -8 28 -10 44 -4 31
-15 41 -32 28z m35 -206 c0 -6 -7 -2 -15 8 -8 11 -15 25 -15 30 0 6 7 2 15 -8
8 -11 15 -25 15 -30z"/>
<path d="M4408 5733 c-27 -7 -22 -23 7 -23 16 0 25 6 25 15 0 15 -2 16 -32 8z"/>
<path d="M4600 5684 c0 -15 27 -50 34 -43 4 3 -2 17 -13 30 -11 13 -20 19 -21
13z"/>
<path d="M4430 5661 c0 -5 5 -11 12 -13 19 -7 58 3 52 13 -7 12 -64 12 -64 0z"/>
<path d="M4520 5635 c0 -8 5 -15 10 -15 6 0 10 7 10 15 0 8 -4 15 -10 15 -5 0
-10 -7 -10 -15z"/>
<path d="M4559 5606 c-10 -20 -9 -28 5 -41 9 -9 16 -19 17 -23 1 -15 9 -58 14
-78 4 -17 10 -20 30 -16 28 5 32 -3 10 -24 -18 -18 -18 -24 -5 -44 9 -13 12
-12 25 4 8 11 15 27 15 35 0 13 -50 151 -69 190 -12 25 -30 24 -42 -3z"/>
<path d="M4531 5478 c-1 -15 4 -30 9 -33 12 -7 12 12 0 40 -8 18 -9 17 -9 -7z"/>
<path d="M5408 5493 c-26 -7 -6 -38 32 -51 28 -10 30 -9 30 12 0 24 -17 47
-34 45 -6 -1 -19 -3 -28 -6z"/>
<path d="M5208 5388 c-19 -15 -36 -64 -19 -54 6 4 11 3 11 -3 0 -5 -4 -13 -10
-16 -5 -3 -10 -10 -10 -15 0 -13 68 -40 84 -34 8 3 17 1 21 -5 3 -6 11 -11 16
-11 16 0 -1 42 -27 69 -14 14 -24 36 -24 52 0 31 -16 37 -42 17z"/>
<path d="M4835 5382 c-24 -8 -65 -43 -65 -55 0 -5 9 -5 20 -2 11 4 20 2 20 -4
0 -6 -19 -11 -43 -11 -32 0 -44 -4 -44 -15 0 -8 6 -16 14 -19 7 -3 13 -13 13
-23 1 -20 33 -63 48 -63 15 0 67 83 63 103 -1 9 4 24 12 32 13 12 15 11 19
-16 3 -17 0 -33 -8 -37 -6 -4 -16 -23 -22 -42 -5 -19 -13 -43 -17 -52 -5 -13
-2 -18 10 -18 14 0 15 -3 6 -14 -13 -16 0 -29 31 -31 28 -2 37 17 42 86 2 35
7 85 11 112 8 48 0 58 -23 35 -10 -10 -14 -8 -18 10 -4 12 -10 20 -14 17 -5
-3 -11 -1 -15 5 -7 11 -10 11 -40 2z"/>
<path d="M5274 5366 c-16 -17 1 -46 28 -46 14 0 18 5 14 16 -3 9 -6 22 -6 30
0 17 -21 18 -36 0z"/>
<path d="M5025 5255 c-4 -31 -10 -53 -13 -50 -8 7 -39 -47 -50 -88 -6 -22 -6
-39 0 -48 7 -11 11 -11 15 -1 2 6 8 10 13 7 5 -3 17 6 28 20 17 21 19 32 11
58 -12 43 -4 62 31 77 34 14 38 30 13 52 -38 32 -41 30 -48 -27z"/>
<path d="M5345 5290 c-6 -10 15 -50 27 -50 5 0 8 7 8 15 0 8 5 15 11 15 6 0 4
7 -5 15 -17 17 -32 19 -41 5z"/>
<path d="M4966 5259 c-13 -65 -15 -89 -5 -94 5 -4 16 9 24 29 13 30 13 38 0
62 l-14 27 -5 -24z"/>
<path d="M5420 5208 c-11 -18 -20 -37 -20 -43 0 -5 4 -4 9 4 5 7 13 11 18 8
13 -8 45 32 39 49 -9 23 -25 16 -46 -18z"/>
<path d="M5064 5206 c-3 -9 -3 -32 0 -51 4 -19 3 -35 -2 -35 -5 0 -14 -11 -20
-25 -15 -32 -15 -32 3 -32 8 0 15 4 15 9 0 4 4 8 9 8 5 0 4 -12 -4 -27 -7 -16
-16 -38 -20 -51 -6 -21 -4 -23 17 -20 30 4 55 71 38 104 -9 16 -9 26 0 40 8
13 9 30 3 53 -10 38 -30 52 -39 27z"/>
<path d="M5123 5187 c1 -15 5 -27 10 -27 10 0 9 22 -2 39 -7 10 -9 7 -8 -12z"/>
<path d="M5645 5140 c-4 -12 -14 -19 -27 -17 -16 2 -24 -9 -41 -51 -11 -29
-21 -51 -23 -50 -1 2 3 27 8 56 6 29 8 55 5 59 -8 7 -60 -14 -105 -41 -27 -17
-32 -25 -27 -46 4 -14 9 -38 12 -55 3 -16 10 -35 14 -41 5 -6 7 -19 3 -28 -4
-10 0 -18 10 -22 20 -8 44 19 52 59 8 34 16 40 46 28 13 -4 41 -14 63 -21 23
-7 56 -30 79 -54 26 -28 40 -37 44 -27 2 7 -1 17 -8 21 -7 4 -8 10 -3 13 5 3
14 2 21 -2 9 -6 10 -15 1 -40 -10 -27 -15 -32 -35 -27 -29 8 -61 -33 -47 -59
8 -14 11 -12 21 10 14 31 28 32 37 4 6 -16 9 -18 15 -8 6 9 12 5 22 -17 7 -16
15 -31 18 -34 3 -3 13 -21 22 -40 l17 -35 0 30 c1 17 -8 44 -18 62 -17 26 -18
38 -9 69 5 21 8 55 5 76 -5 37 -41 87 -63 88 -16 0 -34 45 -34 84 0 55 -61
101 -75 56z"/>
<path d="M5560 4963 c0 -10 9 -33 20 -51 11 -18 20 -42 20 -53 0 -25 18 -21
37 7 12 18 10 25 -14 56 -37 48 -63 65 -63 41z"/>
<path d="M5910 4910 c0 -5 5 -10 11 -10 5 0 7 5 4 10 -3 6 -8 10 -11 10 -2 0
-4 -4 -4 -10z"/>
<path d="M5862 4901 c-16 -9 -5 -41 14 -41 15 0 16 6 6 32 -4 11 -12 14 -20 9z"/>
<path d="M5480 4881 c0 -17 18 -21 24 -6 3 9 0 15 -9 15 -8 0 -15 -4 -15 -9z"/>
<path d="M5555 4870 c3 -4 -3 -11 -13 -15 -15 -6 -14 -8 8 -20 35 -20 40 -19
40 13 0 21 -5 28 -20 29 -11 1 -18 -2 -15 -7z"/>
<path d="M5932 4828 c-18 -18 -15 -40 6 -36 9 2 18 13 20 26 4 24 -7 29 -26
10z"/>
<path d="M6065 4788 c-19 -18 -35 -39 -35 -46 0 -8 -9 -21 -21 -31 -17 -13
-19 -21 -10 -43 5 -14 14 -29 20 -32 24 -15 80 51 65 76 -4 6 -3 13 2 17 5 3
16 20 25 36 13 25 13 33 3 43 -11 10 -21 5 -49 -20z"/>
<path d="M5995 4780 c-10 -11 -14 -20 -9 -20 5 0 17 9 27 20 9 11 13 20 8 20
-4 0 -16 -9 -26 -20z"/>
<path d="M5453 4779 c-10 -10 -8 -19 5 -41 21 -36 32 -36 32 2 0 17 0 33 1 38
0 12 -26 13 -38 1z"/>
<path d="M5544 4759 c-14 -24 -11 -45 8 -46 19 -2 24 22 9 46 -7 11 -10 11
-17 0z"/>
<path d="M5700 4713 c0 -3 11 -30 25 -59 23 -49 41 -61 61 -41 15 15 20 6 16
-24 -4 -29 -3 -30 16 -20 11 6 23 18 26 27 8 20 -12 47 -30 40 -8 -3 -13 0
-11 5 1 6 -18 26 -43 44 -45 34 -60 41 -60 28z"/>
<path d="M5663 4675 c0 -14 4 -28 10 -32 6 -4 7 -1 2 7 -6 9 -4 11 4 6 7 -5
10 -13 8 -20 -3 -6 4 -12 14 -12 17 0 17 3 -3 38 -25 44 -35 48 -35 13z"/>
<path d="M5853 4663 c6 -34 22 -62 30 -52 2 2 2 23 -1 47 -3 29 -9 42 -19 42
-12 0 -14 -8 -10 -37z"/>
<path d="M5890 4676 c0 -9 5 -16 10 -16 6 0 10 4 10 9 0 6 -4 13 -10 16 -5 3
-10 -1 -10 -9z"/>
<path d="M6142 4679 c-12 -5 -22 -16 -22 -26 0 -9 -12 -29 -26 -44 -28 -29
-27 -63 1 -53 9 4 15 1 15 -9 0 -18 52 -30 63 -14 5 7 6 3 2 -9 -5 -21 13 -46
31 -43 45 8 45 -28 1 -58 -41 -28 -55 -29 -82 -3 -31 29 -49 8 -35 -41 13 -43
13 -62 0 -54 -6 4 -10 -5 -10 -20 0 -41 24 -25 28 18 3 35 20 52 24 25 3 -25
8 -104 9 -148 1 -25 3 -37 6 -28 3 12 20 18 61 23 31 3 65 10 74 15 11 6 36 4
70 -5 49 -13 54 -12 73 6 16 15 18 24 10 46 -6 16 -8 56 -5 91 5 64 -1 77 -20
42 -11 -21 -60 -28 -60 -9 0 6 -7 17 -15 25 -11 12 -19 12 -35 4 -30 -16 -43
-3 -35 36 3 21 2 34 -5 34 -5 0 -10 20 -10 45 0 53 -11 61 -67 46 -34 -9 -36
-9 -19 4 11 8 34 15 50 15 24 0 27 3 16 10 -8 5 -10 10 -5 10 6 1 0 5 -13 10
-13 6 -28 23 -35 38 -10 25 -16 28 -35 21z m190 -356 c24 -21 23 -33 -2 -33
-11 0 -20 -5 -20 -11 0 -6 -8 -8 -17 -5 -23 7 -40 -4 -52 -34 l-10 -25 0 23
c-1 19 62 101 78 102 3 0 13 -7 23 -17z"/>
<path d="M5955 4533 c3 -32 9 -78 12 -103 4 -25 5 -51 4 -57 -1 -7 3 -13 8
-13 6 0 7 -8 4 -17 -6 -15 -4 -16 8 -6 8 6 19 11 24 10 13 -1 19 30 9 51 -4 9
-8 33 -10 52 -4 52 -36 140 -51 140 -10 0 -12 -14 -8 -57z"/>
<path d="M5888 4563 c-22 -26 -30 -57 -20 -83 l9 -23 21 21 c15 15 22 34 22
62 0 44 -9 50 -32 23z"/>
<path d="M6260 4160 c0 -5 -6 -10 -14 -10 -18 0 -26 -56 -12 -85 22 -47 72
-56 61 -12 -2 12 -2 16 1 10 3 -7 12 -13 20 -13 9 0 14 -11 14 -30 0 -16 4
-30 10 -30 5 0 7 -13 4 -30 -5 -22 -3 -30 7 -30 11 0 11 -2 -1 -10 -8 -5 -11
-12 -7 -16 4 -4 15 0 26 10 10 9 25 16 32 14 9 -2 15 7 17 23 2 18 14 32 38
45 20 11 32 24 29 32 -2 7 0 10 5 7 6 -3 10 -1 10 4 0 6 -5 11 -11 11 -7 0
-26 16 -43 36 -27 31 -39 37 -83 41 -33 4 -58 12 -69 24 -19 21 -34 25 -34 9z
m70 -64 c0 -8 -4 -18 -10 -21 -5 -3 -10 3 -10 14 0 12 5 21 10 21 6 0 10 -6
10 -14z"/>
<path d="M6318 4158 c5 -5 16 -8 23 -6 8 3 3 7 -10 11 -17 4 -21 3 -13 -5z"/>
<path d="M6490 4136 c0 -2 7 -9 15 -16 12 -10 15 -10 15 4 0 9 -7 16 -15 16
-8 0 -15 -2 -15 -4z"/>
<path d="M6516 4047 c3 -10 9 -15 12 -12 3 3 0 11 -7 18 -10 9 -11 8 -5 -6z"/>
<path d="M6489 4009 c-12 -11 -14 -20 -7 -27 14 -14 1 -33 -17 -25 -11 4 -15
-2 -15 -20 0 -14 -6 -27 -13 -30 -8 -3 -20 -25 -26 -50 -11 -39 -11 -48 4 -71
10 -14 21 -23 26 -21 10 7 22 -33 19 -61 -4 -34 0 -43 28 -69 25 -24 26 -27 9
-39 -16 -12 -16 -14 -1 -20 8 -3 22 -6 29 -6 18 0 28 32 13 42 -11 8 -10 11 0
15 24 9 68 59 64 71 -2 7 3 12 12 12 23 0 21 49 -1 56 -63 20 -75 29 -93 70
-24 52 -25 60 -5 44 8 -7 15 -18 15 -25 0 -7 6 -18 13 -24 11 -8 19 -5 36 13
l22 24 -21 15 c-21 15 -23 36 -5 49 6 4 0 8 -12 8 -17 0 -23 8 -28 39 -7 45
-23 55 -46 30z m30 -46 c0 -25 -1 -25 -8 -8 -5 11 -7 23 -4 28 8 14 13 7 12
-20z"/>
<path d="M6300 3506 c0 -2 7 -6 15 -10 8 -3 15 -1 15 4 0 6 -7 10 -15 10 -8 0
-15 -2 -15 -4z"/>
<path d="M6313 3423 c-18 -7 -16 -33 2 -33 8 0 15 9 15 20 0 11 -1 20 -2 19
-2 0 -9 -3 -15 -6z"/>
<path d="M3950 3397 c0 -8 7 -20 15 -27 12 -10 15 -10 15 3 0 8 -7 20 -15 27
-12 10 -15 10 -15 -3z"/>
<path d="M3638 3350 c-17 -30 -17 -31 17 -67 18 -19 31 -42 28 -49 -7 -19 31
-18 51 1 8 9 13 22 10 30 -7 18 -38 29 -42 15 -3 -7 -13 1 -23 17 -21 31 -25
53 -7 35 14 -14 48 -16 48 -4 0 11 -44 52 -56 52 -5 0 -17 -14 -26 -30z"/>
<path d="M6323 3331 c-34 -28 -45 -58 -18 -47 8 3 18 0 22 -7 13 -21 63 -48
74 -41 15 9 3 91 -15 110 -20 19 -26 18 -63 -15z"/>
<path d="M3740 3325 c0 -8 7 -15 15 -15 8 0 15 7 15 15 0 8 -7 15 -15 15 -8 0
-15 -7 -15 -15z"/>
<path d="M3628 3260 c2 -16 8 -27 13 -24 13 8 11 30 -4 43 -11 8 -13 5 -9 -19z"/>
<path d="M3764 3217 c-30 -26 -28 -57 5 -57 14 0 18 -5 14 -19 -3 -12 2 -20
16 -24 24 -6 31 0 31 25 0 10 -7 18 -17 18 -13 0 -14 3 -5 8 13 9 6 72 -9 72
-4 0 -20 -11 -35 -23z"/>
<path d="M6329 3227 c-3 -27 3 -73 10 -80 4 -4 17 4 30 17 19 21 21 27 10 44
-15 24 -48 36 -50 19z"/>
<path d="M6312 3070 c0 -14 2 -19 5 -12 2 6 2 18 0 25 -3 6 -5 1 -5 -13z"/>
<path d="M4053 3065 c-3 -9 2 -24 10 -33 12 -13 15 -28 10 -56 -6 -38 -5 -39
20 -34 16 3 28 0 31 -8 3 -8 10 -14 17 -14 6 0 9 7 5 15 -3 8 -1 15 4 15 25 0
8 52 -30 90 -43 43 -57 48 -67 25z"/>
<path d="M6250 2956 c0 -10 -18 -36 -40 -58 -22 -23 -40 -44 -40 -48 0 -8 22
-30 31 -30 17 0 90 80 83 91 -4 8 -3 9 4 5 22 -13 12 10 -13 34 -22 20 -25 21
-25 6z"/>
<path d="M4130 2901 c0 -5 -9 -11 -20 -14 -17 -4 -20 -14 -20 -55 0 -35 5 -54
18 -65 32 -29 50 -21 57 26 11 63 19 68 25 14 3 -26 7 -47 10 -47 15 3 86 -35
101 -53 10 -12 18 -18 19 -14 0 4 9 3 21 -3 17 -10 25 -7 50 19 16 17 24 31
18 31 -6 0 -24 12 -39 28 -16 15 -41 38 -57 52 -15 14 -39 39 -53 57 -19 24
-28 29 -41 22 -23 -12 -69 -12 -69 1 0 6 -4 10 -10 10 -5 0 -10 -4 -10 -9z"/>
<path d="M5620 2820 c0 -5 7 -10 15 -10 8 0 15 5 15 10 0 6 -7 10 -15 10 -8 0
-15 -4 -15 -10z"/>
<path d="M4462 2692 c-14 -13 -19 -26 -15 -40 8 -32 29 -27 42 9 19 54 11 63
-27 31z"/>
<path d="M4517 2673 c-11 -10 -8 -58 4 -70 6 -6 19 -8 30 -6 14 4 16 9 9 23
-20 37 -9 33 21 -8 17 -23 35 -42 39 -42 15 0 60 23 60 30 0 6 -141 80 -152
80 -3 0 -8 -3 -11 -7z"/>
<path d="M4675 2630 c3 -5 8 -10 11 -10 2 0 4 5 4 10 0 6 -5 10 -11 10 -5 0
-7 -4 -4 -10z"/>
<path d="M6088 2599 c-9 -5 -15 -16 -12 -23 3 -8 -3 -17 -14 -20 -20 -7 -37
-34 -28 -44 11 -11 38 10 51 40 8 18 14 27 15 21 0 -25 20 -13 20 12 0 27 -6
30 -32 14z"/>
<path d="M5638 2573 c7 -3 16 -2 19 1 4 3 -2 6 -13 5 -11 0 -14 -3 -6 -6z"/>
<path d="M5985 2542 c-14 -10 -17 -32 -5 -32 11 0 26 28 18 35 -2 2 -8 1 -13
-3z"/>
</g>
</svg>
